HIERARCHY
ROOT SpineBase
{
  OFFSET 0.000000 0.000000 0.000000
  CHANNELS 6 Xposition Yposition Zposition Zrotation Xrotation Yrotation
  JOINT SpineMid
  {
    OFFSET 0.000000 28.830950 0.000000
    CHANNELS 3 Zrotation Xrotation Yrotation
    JOINT SpineShoulder
    {
      OFFSET -0.156879 21.434643 -0.546694
      CHANNELS 3 Zrotation Xrotation Yrotation
      JOINT Neck
      {
        OFFSET -0.045603 7.107246 -0.457405
        CHANNELS 3 Zrotation Xrotation Yrotation
        JOINT Head
        {
          OFFSET -1.939321 11.022847 -1.075412
          CHANNELS 3 Zrotation Xrotation Yrotation
          End Site
          {
            OFFSET 0 0 0
          }
        }
      }
      JOINT ShoulderLeft
      {
        OFFSET -16.257269 -1.680685 6.776623
        CHANNELS 3 Zrotation Xrotation Yrotation
        JOINT ElbowLeft
        {
          OFFSET -3.919477 -27.026314 2.927663
          CHANNELS 3 Zrotation Xrotation Yrotation
          JOINT WristLeft
          {
            OFFSET -1.479267 -20.254606 -2.373715
            CHANNELS 3 Zrotation Xrotation Yrotation
            JOINT HandLeft
            {
              OFFSET -0.052396 -6.683546 -1.869100
              CHANNELS 3 Zrotation Xrotation Yrotation
              JOINT HandTipLeft
              {
                OFFSET -0.432064 -7.329080 -0.521672
                CHANNELS 3 Zrotation Xrotation Yrotation
                End Site
                {
                  OFFSET 0 0 0
                }
              }
              JOINT ThumbLeft
              {
                OFFSET -1.929805 -1.806595 -1.102558
                CHANNELS 3 Zrotation Xrotation Yrotation
                End Site
                {
                  OFFSET 0 0 0
                }
              }
            }
          }
        }
      }
      JOINT ShoulderRight
      {
        OFFSET 14.584025 -2.154100 -5.717542
        CHANNELS 3 Zrotation Xrotation Yrotation
        JOINT ElbowRight
        {
          OFFSET 5.974950 -23.269902 -1.486720
          CHANNELS 3 Zrotation Xrotation Yrotation
          JOINT WristRight
          {
            OFFSET -2.466781 -19.728099 -5.256372
            CHANNELS 3 Zrotation Xrotation Yrotation
            JOINT HandRight
            {
              OFFSET -3.891501 -4.871681 0.750087
              CHANNELS 3 Zrotation Xrotation Yrotation
              JOINT HandTipRight
              {
                OFFSET -1.037822 -6.481163 -0.492402
                CHANNELS 3 Zrotation Xrotation Yrotation
                End Site
                {
                  OFFSET 0 0 0
                }
              }
              JOINT ThumbRight
              {
                OFFSET -1.809117 1.125130 -1.159714
                CHANNELS 3 Zrotation Xrotation Yrotation
                End Site
                {
                  OFFSET 0 0 0
                }
              }
            }
          }
        }
      }
    }
  }
  JOINT HipLeft
  {
    OFFSET -7.367009 0.408217 -1.295988
    CHANNELS 3 Zrotation Xrotation Yrotation
    JOINT KneeLeft
    {
      OFFSET 3.798476 -29.249776 6.782109
      CHANNELS 3 Zrotation Xrotation Yrotation
      JOINT AnkleLeft
      {
        OFFSET 4.068223 -37.855873 5.106807
        CHANNELS 3 Zrotation Xrotation Yrotation
        JOINT FootLeft
        {
          OFFSET 2.248881 -6.734246 -7.430626
          CHANNELS 3 Zrotation Xrotation Yrotation
          End Site
          {
            OFFSET 0 0 0
          }
        }
      }
    }
  }
  JOINT HipRight
  {
    OFFSET 6.998267 0.715344 -4.770236
    CHANNELS 3 Zrotation Xrotation Yrotation
    JOINT KneeRight
    {
      OFFSET 0.898300 -31.789524 4.055749
      CHANNELS 3 Zrotation Xrotation Yrotation
      JOINT AnkleRight
      {
        OFFSET 1.530574 -35.005277 5.643176
        CHANNELS 3 Zrotation Xrotation Yrotation
        JOINT FootRight
        {
          OFFSET -4.542723 -5.928576 -7.649769
          CHANNELS 3 Zrotation Xrotation Yrotation
          End Site
          {
            OFFSET 0 0 0
          }
        }
      }
    }
  }
}
MOTION
Frames: 14
Frame Time: 0.033333
20.470375 80.998854 370.213311 -0.000000 0.000000 13.595940 0.000000 0.000000 -13.595940 -0.000000 0.000000 0.000000 -0.000000 0.000000 0.000000 0.000000 0.000000 0.000000 -0.000000 0.000000 0.000000 -0.000000 0.000000 0.000000 -0.000000 0.000000 0.000000 -0.000000 0.000000 0.000000 0.000000 0.000000 0.000000 0.000000 0.000000 0.000000 -0.000000 0.000000 0.000000 -0.000000 0.000000 0.000000 -0.000000 0.000000 0.000000 -0.000000 0.000000 0.000000 0.000000 0.000000 0.000000 0.000000 0.000000 0.000000 0.000000 0.000000 -13.595940 -0.000000 0.000000 0.000000 -0.000000 0.000000 0.000000 0.000000 0.000000 0.000000 0.000000 0.000000 -13.595940 -0.000000 0.000000 0.000000 -0.000000 0.000000 0.000000 0.000000 0.000000 0.000000
20.241151 81.051038 370.266239 -0.112923 0.194690 14.372692 0.061061 -0.216626 -14.372384 -0.000000 0.000000 0.000000 -1.184501 -1.096161 -0.320041 0.000000 0.000000 0.000000 0.573297 0.725083 -0.046746 1.894935 1.420020 -0.421232 -0.379187 -2.461727 -0.093904 -0.460680 1.368513 0.381030 0.000000 0.000000 0.000000 0.000000 0.000000 0.000000 -0.000000 0.000000 0.000000 -0.000000 0.000000 0.000000 1.061882 -1.867684 1.680954 -0.594184 4.945471 -2.185279 0.000000 0.000000 0.000000 0.000000 0.000000 0.000000 0.061061 -0.216626 -14.372384 -0.000000 0.000000 0.000000 1.205342 -2.470913 -2.173144 0.000000 0.000000 0.000000 0.061061 -0.216626 -14.372384 -0.000000 0.000000 0.000000 5.401397 -8.032736 -0.492463 0.000000 0.000000 0.000000
20.031593 81.109188 370.314048 -0.224527 0.338255 14.995477 0.129364 -0.384829 -14.994380 -0.000000 0.000000 0.000000 -2.103747 -1.985941 -0.592077 0.000000 0.000000 0.000000 1.088823 1.367526 -0.093627 3.372346 2.463561 -0.777361 -0.379307 -4.337956 -0.180130 -0.916869 2.328763 0.729693 0.000000 0.000000 0.000000 0.000000 0.000000 0.000000 -1.406858 0.003388 0.091088 2.386139 0.529837 -0.423246 0.857465 -4.096662 3.548985 -0.762310 9.130062 -4.116438 0.000000 0.000000 0.000000 0.000000 0.000000 0.000000 0.129364 -0.384829 -14.994380 0.759268 -0.414566 0.060550 1.097426 -3.586393 -3.506343 0.000000 0.000000 0.000000 0.947697 -0.870252 -14.875876 -1.897936 -0.590833 -0.305519 11.088943 -13.700423 -0.672090 0.000000 0.000000 0.000000
19.841702 81.173304 370.356737 -0.334778 0.430542 15.461713 0.207891 -0.504205 -15.459541 -0.000000 0.000000 0.000000 -2.770077 -2.685139 -0.809320 0.000000 0.000000 0.000000 1.543292 1.923388 -0.138204 4.472585 3.181312 -1.057351 -0.119650 -5.654803 -0.258138 -1.335879 2.829290 1.052699 0.000000 0.000000 0.000000 0.000000 0.000000 0.000000 -1.965410 -0.031839 0.117381 3.434263 0.779538 -0.614002 0.778600 -5.827428 5.038290 -0.554825 12.584338 -5.779156 0.000000 0.000000 0.000000 0.000000 0.000000 0.000000 0.207891 -0.504205 -15.459541 1.077130 -0.555114 0.090721 0.953110 -4.009644 -3.936432 0.000000 0.000000 0.000000 1.403835 -1.160949 -15.281775 -2.618915 -0.775105 -0.417391 14.737267 -17.551953 -1.137303 0.000000 0.000000 0.000000
19.671477 81.243385 370.394307 -0.443638 0.471427 15.769591 0.298838 -0.574241 -15.766268 -0.000000 0.000000 0.000000 -3.192798 -3.206295 -0.967289 0.000000 0.000000 0.000000 1.933987 2.389621 -0.178261 5.230229 3.614089 -1.257257 0.300397 -6.442759 -0.338523 -1.692426 2.841697 1.357671 0.000000 0.000000 0.000000 0.000000 0.000000 0.000000 -2.418948 -0.091729 0.129791 4.377078 1.020491 -0.790951 0.287379 -7.338430 6.267477 -0.021335 15.320859 -7.143612 0.000000 0.000000 0.000000 0.000000 0.000000 0.000000 0.298838 -0.574241 -15.766268 1.346534 -0.646879 0.119499 0.406802 -3.516790 -3.511922 0.000000 0.000000 0.000000 1.852891 -1.348107 -15.531869 -3.193165 -0.895329 -0.503533 16.494454 -18.633294 -2.215965 0.000000 0.000000 0.000000
19.520919 81.319431 370.426757 -0.551072 0.460819 15.917969 0.403581 -0.594269 -15.913660 -0.000000 0.000000 0.000000 -3.378064 -3.558501 -1.063167 0.000000 0.000000 0.000000 2.258795 2.764051 -0.211875 5.671330 3.790823 -1.376843 0.809460 -6.733551 -0.436087 -1.972079 2.362460 1.651429 0.000000 0.000000 0.000000 0.000000 0.000000 0.000000 -2.762946 -0.175965 0.127939 5.209900 1.253216 -0.954229 -0.667954 -8.623385 7.189442 0.783650 17.329852 -8.166412 0.000000 0.000000 0.000000 0.000000 0.000000 0.000000 0.403581 -0.594269 -15.913660 1.563334 -0.688059 0.146020 -0.554412 -2.123691 -2.223256 0.000000 0.000000 0.000000 2.296526 -1.426969 -15.627097 -3.622413 -0.955665 -0.564664 16.258893 -16.769904 -4.020686 0.000000 0.000000 0.000000
19.317268 81.418871 370.503817 -0.715481 0.393074 15.891991 -0.305201 -0.316885 -15.917004 0.089338 -0.197436 -0.032786 -2.532187 -3.851274 -1.096174 0.000000 0.000000 0.000000 3.335404 3.265342 -0.197483 4.982219 3.460217 -1.271495 3.694571 -5.677271 -0.975589 -2.392145 -0.146209 2.419720 0.000000 0.000000 0.000000 0.000000 0.000000 0.000000 -2.146613 -0.116534 0.167735 5.981873 1.183764 -1.070684 -3.531371 -9.027371 7.099440 2.604887 16.955911 -8.039887 0.000000 0.000000 0.000000 0.000000 0.000000 0.000000 1.098419 0.057079 -15.711420 1.490805 -1.361870 0.038091 -1.696723 -0.822642 -0.796533 0.000000 0.000000 0.000000 2.882947 -1.477249 -15.538384 -3.642933 -0.717194 -0.538745 12.660438 -10.255488 -6.343005 0.000000 0.000000 0.000000
19.137210 81.496056 370.580409 -0.872741 0.242614 15.638695 -0.422839 -0.453519 -15.675101 0.028799 -0.296579 -0.047738 -1.891648 -3.550966 -1.034658 0.000000 0.000000 0.000000 3.808258 3.833138 -0.212058 4.419999 3.253120 -1.203328 5.176000 -5.265291 -1.242438 -2.342351 -3.474122 3.117078 0.000000 0.000000 0.000000 0.000000 0.000000 0.000000 -1.880661 0.125139 0.160136 6.728549 2.185743 -1.374251 -6.923333 -12.744746 8.620621 4.665746 21.213633 -9.834781 0.000000 0.000000 0.000000 0.000000 0.000000 0.000000 1.656187 0.538542 -15.343056 1.377386 -1.785404 -0.043252 -4.848159 5.594326 4.643905 0.000000 0.000000 0.000000 3.538885 -1.281572 -15.225281 -3.817086 -0.447110 -0.540727 7.820736 -4.119801 -5.483288 0.000000 0.000000 0.000000
19.075721 81.584954 370.608609 -0.954047 0.045352 15.240034 -0.520646 -0.546651 -15.285823 -0.038897 -0.375167 -0.059540 -1.232244 -2.868257 -0.893434 0.000000 0.000000 0.000000 4.140015 4.141690 -0.198483 4.664412 2.477758 -1.163014 4.243200 -3.588212 -1.396886 -2.958194 -3.966057 3.000178 0.000000 0.000000 0.000000 0.000000 0.000000 0.000000 -1.648056 0.332506 0.139098 7.057131 2.357823 -1.441302 -8.481114 -13.621158 8.919320 5.826040 22.526331 -10.384932 0.000000 0.000000 0.000000 0.000000 0.000000 0.000000 2.008378 1.007686 -14.875918 1.230410 -2.219349 -0.121169 -7.438587 9.079670 8.579427 0.000000 0.000000 0.000000 4.179202 -0.674753 -14.780392 -3.259224 -0.467343 -0.442553 3.224634 0.256974 -4.446902 0.000000 0.000000 0.000000
19.142222 81.681157 370.518636 -0.953371 -0.119285 15.046515 -0.608203 -0.623191 -15.098293 -0.102980 -0.431584 -0.066924 -0.341270 -1.905736 -0.666915 0.000000 0.000000 0.000000 4.384091 4.409363 -0.193733 4.478582 2.063614 -1.119261 3.359804 -3.163758 -1.302010 -1.153605 -3.520117 2.685636 0.000000 0.000000 0.000000 0.000000 0.000000 0.000000 -1.463007 0.547631 0.127560 7.032284 1.914676 -1.344186 -8.972288 -10.449197 6.911487 4.620063 19.043123 -7.776633 0.000000 0.000000 0.000000 0.000000 0.000000 0.000000 2.461776 1.676274 -14.558142 0.494475 -3.258319 -0.373103 -7.099568 8.900895 8.665838 0.000000 0.000000 0.000000 4.105525 -0.268937 -14.622747 -3.086257 -0.664007 -0.430503 1.531059 5.376126 -5.869139 0.000000 0.000000 0.000000
19.270508 81.791544 370.402492 -0.842645 -0.195975 14.825102 -0.691369 -0.661614 -14.877312 -0.149858 -0.451616 -0.068257 0.135733 -1.340599 -0.538208 0.000000 0.000000 0.000000 4.455180 4.486342 -0.185482 4.212313 1.216735 -0.999209 2.818007 -1.511065 -1.408177 -1.144969 -1.055255 2.122770 0.000000 0.000000 0.000000 0.000000 0.000000 0.000000 -1.421431 0.648947 0.117457 6.913099 1.636570 -1.256021 -8.900654 -9.192937 6.234962 5.458599 16.100412 -7.078757 0.000000 0.000000 0.000000 0.000000 0.000000 0.000000 2.105718 1.981480 -14.393533 0.971288 -3.610518 -0.299945 -10.789054 12.101493 13.548371 0.000000 0.000000 0.000000 3.834362 -0.006930 -14.437715 -2.871209 -0.758740 -0.406788 0.551417 10.121689 -7.674777 0.000000 0.000000 0.000000
19.359838 81.867473 370.267729 -0.800418 -0.277242 14.605954 -0.674391 -0.634129 -14.656646 -0.127403 -0.402165 -0.063815 0.560882 -1.156149 -0.459727 0.000000 0.000000 0.000000 4.417690 4.474206 -0.185340 3.902624 0.891868 -0.933419 3.311869 -0.560433 -1.605098 -1.398014 1.865540 1.736409 0.000000 0.000000 0.000000 0.000000 0.000000 0.000000 -1.506762 0.683455 0.125030 6.637407 1.417682 -1.150576 -8.292784 -7.125225 4.907763 7.505628 11.416819 -5.839956 0.000000 0.000000 0.000000 0.000000 0.000000 0.000000 2.235330 2.112666 -14.137928 0.741057 -3.747676 -0.365811 -12.043252 11.514489 14.958045 0.000000 0.000000 0.000000 3.696821 0.083818 -14.239606 -3.712823 -0.009065 -0.519601 -1.162891 14.454559 -7.223494 0.000000 0.000000 0.000000
19.530200 81.956801 370.071489 -0.623239 -0.327427 14.179488 -0.653363 -0.536947 -14.222669 -0.063349 -0.304998 -0.051405 0.420153 -0.983608 -0.405509 0.000000 0.000000 0.000000 4.290930 4.090915 -0.142298 3.635298 1.056776 -0.977861 4.948824 0.860114 -2.132733 -3.861385 3.305674 1.840237 0.000000 0.000000 0.000000 0.000000 0.000000 0.000000 -1.734285 0.548405 0.109898 6.099699 1.047018 -0.945840 -5.486640 -5.360235 4.298497 5.546436 7.945281 -4.697322 0.000000 0.000000 0.000000 0.000000 0.000000 0.000000 1.916256 1.918715 -13.766028 0.450631 -3.629954 -0.398983 -12.854123 10.520843 16.110813 0.000000 0.000000 0.000000 3.227791 0.070982 -13.854878 -4.226939 0.036487 -0.608018 2.799446 15.218185 -11.431410 0.000000 0.000000 0.000000
19.682938 82.042669 369.837326 -0.447024 -0.370600 13.486561 -0.597681 -0.433219 -13.521361 -0.044217 -0.253543 -0.041415 0.141396 -0.500243 -0.312504 0.000000 0.000000 0.000000 4.135797 3.480277 -0.058863 3.464620 1.665971 -1.104723 5.837271 3.073712 -2.572668 -5.131192 2.843295 1.865118 0.000000 0.000000 0.000000 0.000000 0.000000 0.000000 -1.928026 0.439270 0.095700 5.762398 0.783437 -0.822108 -4.601571 -3.008247 2.735471 6.278868 3.713074 -2.812361 0.000000 0.000000 0.000000 0.000000 0.000000 0.000000 1.591028 1.474673 -13.143014 0.154119 -3.005172 -0.379652 -12.143841 7.579620 14.890520 0.000000 0.000000 0.000000 2.718483 -0.108671 -13.204146 -3.846224 0.965426 -0.493947 2.402260 10.458248 -8.639522 0.000000 0.000000 0.000000
